<?xml version="1.0" standalone="no"?>
<!DOCTYPE svg PUBLIC "-//W3C//DTD SVG 20010904//EN"
 "http://www.w3.org/TR/2001/REC-SVG-20010904/DTD/svg10.dtd">
<svg version="1.0" xmlns="http://www.w3.org/2000/svg"
 width="500.000000pt" height="500.000000pt" viewBox="0 0 500.000000 500.000000"
 preserveAspectRatio="xMidYMid meet">

<g transform="translate(0.000000,500.000000) scale(0.100000,-0.100000)"
fill="#000000" stroke="none">
<path d="M2385 4539 c4 -8 14 -21 20 -29 16 -20 36 -80 46 -144 l8 -51 -4 56
c-4 63 -43 170 -64 177 -9 3 -11 0 -6 -9z"/>
<path d="M2381 4384 c0 -11 3 -14 6 -6 3 7 2 16 -1 19 -3 4 -6 -2 -5 -13z"/>
<path d="M2340 4285 c-27 -54 -62 -96 -160 -195 -166 -166 -314 -299 -307
-274 13 43 19 74 14 74 -9 0 -49 -187 -44 -206 3 -12 5 -8 6 11 2 55 55 128
158 217 118 103 232 215 285 282 41 51 92 142 86 154 -2 4 -19 -24 -38 -63z"/>
<path d="M2462 4235 c-1 -38 -4 -95 -7 -125 l-4 -55 10 49 c5 26 8 82 6 125
l-3 76 -2 -70z"/>
<path d="M3466 4264 c-47 -41 -119 -64 -386 -124 -216 -49 -319 -84 -407 -140
-34 -21 -63 -37 -63 -34 0 3 21 30 46 59 54 64 118 107 211 142 37 14 77 32
88 40 17 12 14 13 -30 13 -147 -1 -346 -73 -429 -156 -35 -35 -46 -41 -47 -27
0 10 -6 0 -13 -22 -7 -22 -25 -61 -39 -86 -15 -25 -27 -50 -27 -55 0 -5 17 21
38 56 77 134 188 216 342 253 97 23 174 32 166 18 -4 -6 -13 -11 -19 -11 -28
0 -159 -72 -201 -110 -44 -40 -105 -116 -142 -175 -15 -24 -7 -19 41 23 79 71
212 135 345 166 372 90 447 109 482 127 21 11 38 17 38 14 0 -3 -16 -38 -36
-78 -21 -44 -27 -62 -15 -47 12 14 23 33 27 44 3 10 22 45 41 78 19 33 33 61
31 63 -1 2 -21 -12 -42 -31z"/>
<path d="M1988 4180 c-81 -42 -151 -118 -198 -214 -35 -72 -50 -126 -74 -268
l-7 -37 -46 29 c-26 17 -51 30 -57 30 -6 0 14 -15 44 -34 52 -33 55 -37 61
-83 l6 -48 1 55 c2 66 24 196 47 272 18 64 73 159 118 206 30 31 116 92 130
92 3 0 -10 -25 -28 -56 -37 -61 -95 -195 -95 -216 1 -7 11 14 24 47 35 91 75
165 113 213 19 23 31 42 26 42 -4 -1 -34 -14 -65 -30z"/>
<path d="M3338 4016 c-25 -35 -68 -81 -96 -103 -27 -21 -62 -48 -78 -61 -23
-18 -17 -16 35 9 97 47 200 70 344 76 84 4 127 2 127 -4 0 -6 -17 -14 -37 -18
-67 -11 -196 -81 -263 -141 -36 -31 -66 -60 -68 -64 -1 -4 12 -4 30 -2 26 4
29 6 14 12 -16 5 -12 12 30 49 93 82 212 135 329 147 48 5 63 10 55 18 -7 7
-69 11 -178 11 -158 -1 -237 -11 -317 -41 -12 -5 2 17 35 53 47 51 98 123 88
123 -2 0 -24 -29 -50 -64z"/>
<path d="M4068 3836 c-39 -49 -140 -113 -215 -136 -112 -34 -185 -36 -304 -7
-125 31 -182 39 -174 26 4 -5 20 -9 36 -9 17 0 76 -12 132 -26 83 -21 116 -25
177 -20 121 9 236 57 321 133 22 20 39 31 39 26 0 -26 -116 -237 -159 -290
-28 -35 -48 -63 -43 -63 15 0 116 148 157 230 42 86 70 158 63 165 -2 2 -16
-11 -30 -29z"/>
<path d="M1298 3763 c-46 -7 -32 -20 29 -27 31 -4 77 -16 102 -27 47 -20 141
-80 141 -89 0 -3 -36 -4 -79 -2 -63 3 -107 -3 -211 -28 -147 -36 -199 -36
-249 -1 -37 26 -38 20 -10 -34 28 -53 55 -82 106 -115 l43 -27 -37 -6 c-40 -7
-157 7 -213 24 -19 7 -50 22 -67 36 -18 13 -33 21 -33 16 0 -4 28 -56 62 -115
67 -118 157 -235 239 -313 39 -37 34 -30 -18 27 -39 42 -94 109 -123 150 -50
71 -130 201 -130 212 0 3 19 -4 43 -14 56 -25 182 -41 257 -33 33 3 60 9 60
12 0 3 -25 17 -55 30 -56 24 -93 59 -121 113 l-15 29 30 -15 c43 -23 98 -20
220 11 109 27 261 37 309 20 23 -9 24 -9 7 17 -25 37 -128 103 -194 123 l-56
18 45 6 45 6 -50 0 c-27 0 -62 -2 -77 -4z"/>
<path d="M1480 3746 c30 -7 69 -16 85 -21 17 -4 27 -5 24 -1 -10 11 -110 36
-139 35 -14 0 0 -6 30 -13z"/>
<path d="M3849 3443 c-8 -9 -32 -30 -54 -46 -22 -17 -33 -27 -24 -24 129 45
168 52 274 51 90 -1 124 -6 190 -27 75 -25 192 -84 183 -92 -2 -2 -42 0 -88 5
-94 9 -222 -2 -278 -26 -19 -7 -53 -14 -76 -15 -37 -1 -35 -2 24 -14 172 -34
295 -116 443 -294 80 -96 104 -121 161 -159 34 -23 50 -27 113 -27 40 1 73 -2
73 -5 0 -4 -30 -36 -67 -72 -80 -76 -168 -127 -279 -161 -79 -24 -81 -24 -115
-6 -19 10 -38 18 -44 18 -5 0 11 -11 38 -25 33 -17 53 -22 65 -16 9 5 40 15
67 21 106 26 256 126 330 220 20 24 34 46 32 48 -2 1 -29 -2 -60 -8 -94 -19
-137 -1 -227 94 -252 265 -271 282 -360 324 -47 23 -96 45 -110 51 l-25 10 30
12 c46 18 233 25 321 11 41 -7 78 -10 81 -8 3 3 -30 26 -74 51 -184 109 -381
133 -560 69 -12 -4 -9 4 11 25 17 18 27 32 24 32 -3 0 -12 -8 -19 -17z"/>
<path d="M3631 3337 c-4 -116 -172 -284 -355 -359 -45 -19 -59 -27 -38 -24
125 21 320 175 381 301 15 29 20 34 22 20 10 -141 -93 -287 -249 -351 -31 -13
-50 -24 -41 -24 26 0 131 57 176 94 55 48 99 119 118 193 14 53 14 68 1 119
-9 40 -14 50 -15 31z"/>
<path d="M2630 3100 c-95 -12 -195 -37 -239 -60 -53 -27 -161 -94 -136 -85 63
24 191 45 275 45 176 0 306 -32 435 -106 86 -48 102 -45 20 5 -72 44 -161 79
-243 96 -75 16 -296 19 -357 5 -51 -12 -54 -7 -13 18 62 38 175 63 313 69
l130 5 80 -40 c51 -26 108 -67 158 -112 42 -40 77 -67 77 -61 0 21 -166 153
-234 186 -80 39 -157 49 -266 35z"/>
<path d="M781 2989 c-70 -14 -61 -19 30 -18 46 1 71 4 54 7 l-30 5 25 7 c24 8
24 8 -5 8 -16 0 -50 -4 -74 -9z"/>
<path d="M1015 2985 c76 -17 90 -17 45 0 -19 7 -51 13 -70 13 -28 0 -23 -2 25
-13z"/>
<path d="M3803 2985 c-37 -26 -177 -82 -234 -94 -30 -6 -97 -15 -149 -20 -87
-8 -90 -8 -32 -10 35 0 96 4 135 10 71 11 203 53 222 70 19 19 27 8 9 -12 -24
-27 -71 -50 -159 -79 -75 -25 -163 -31 -275 -17 -45 5 -60 4 -49 -3 9 -5 57
-13 105 -16 105 -8 164 -33 228 -97 53 -54 73 -128 55 -203 -15 -63 -62 -153
-105 -201 l-34 -38 27 60 c50 112 38 220 -37 323 -34 47 -134 126 -151 120 -7
-2 11 -19 39 -37 103 -66 160 -155 169 -266 5 -58 3 -65 -51 -170 -31 -60 -56
-110 -56 -110 0 -1 9 -1 20 -1 11 0 20 7 20 14 0 8 18 36 40 62 148 176 176
340 77 447 -23 25 -58 53 -79 64 -21 11 -38 23 -38 27 0 4 30 14 68 23 96 23
152 53 219 114 54 51 64 73 16 40z"/>
<path d="M918 2963 c6 -2 18 -2 25 0 6 3 1 5 -13 5 -14 0 -19 -2 -12 -5z"/>
<path d="M1115 2960 c27 -12 43 -12 25 0 -8 5 -22 9 -30 9 -10 0 -8 -3 5 -9z"/>
<path d="M968 2953 c7 -3 16 -2 19 1 4 3 -2 6 -13 5 -11 0 -14 -3 -6 -6z"/>
<path d="M1025 2935 c24 -11 26 -14 10 -14 -117 -6 -350 -55 -377 -80 -4 -3
25 -23 65 -43 40 -21 98 -60 129 -88 70 -62 134 -148 121 -161 -16 -16 -144
-40 -251 -46 -60 -3 -98 -9 -90 -14 7 -5 50 -18 96 -30 45 -12 82 -25 82 -28
0 -4 -25 -31 -55 -61 -30 -30 -55 -58 -55 -62 0 -4 24 4 53 17 28 13 79 26
112 30 33 4 68 9 78 11 34 10 16 -16 -30 -42 -55 -32 -164 -116 -158 -123 3
-2 11 2 19 8 19 16 181 71 208 71 16 0 8 -13 -41 -65 -72 -78 -82 -92 -116
-169 l-26 -60 45 42 c49 45 166 125 173 118 3 -2 -4 -21 -15 -43 -11 -21 -27
-62 -37 -92 -9 -29 -26 -62 -36 -72 -10 -10 -13 -19 -8 -21 13 -4 1 -58 -13
-58 -5 0 -19 5 -30 11 l-21 11 24 20 c24 19 24 19 -14 1 -20 -9 -34 -20 -30
-24 12 -11 215 -80 226 -76 5 1 -23 13 -62 25 -39 13 -71 27 -71 31 0 18 91
129 156 192 72 68 158 130 233 168 l44 23 -7 -29 c-4 -15 -25 -66 -46 -113
-46 -100 -53 -138 -42 -205 8 -47 9 -46 9 31 0 70 4 90 31 149 18 37 34 66 37
64 4 -5 -24 -121 -40 -164 -4 -11 2 -5 14 13 12 18 21 36 21 40 0 4 10 18 21
32 l20 25 -6 -24 c-4 -12 -16 -53 -26 -89 -31 -109 -21 -95 20 28 22 63 46
131 55 151 36 85 307 391 383 434 77 43 170 80 292 115 63 19 110 35 104 37
-6 2 -65 -12 -130 -32 -134 -42 -345 -137 -448 -203 -79 -51 -175 -144 -194
-189 -8 -19 -27 -37 -56 -51 -108 -52 -234 -141 -319 -223 -50 -49 -92 -87
-93 -85 -6 5 47 147 75 201 67 134 228 316 372 422 66 49 257 154 323 178 26
10 46 20 44 22 -14 13 -238 -97 -347 -170 -41 -28 -119 -93 -172 -145 l-98
-95 -67 12 c-123 21 -130 22 -109 13 14 -6 16 -11 8 -16 -7 -4 -16 -5 -22 -1
-12 8 -178 -13 -202 -26 -33 -18 -20 8 24 45 32 28 47 34 67 29 59 -14 10 6
-64 27 -97 27 -115 40 -55 40 84 0 313 59 274 69 -12 3 -40 29 -61 56 -61 77
-156 160 -218 190 -32 16 -52 32 -47 37 4 4 57 19 117 33 131 29 288 42 329
26 16 -6 31 -10 33 -7 5 4 -146 56 -162 56 -6 -1 4 -7 20 -15z m663 -432 c-70
-73 -229 -269 -284 -350 -31 -46 -57 -83 -59 -83 -2 0 0 12 5 28 54 181 131
286 294 401 74 51 91 53 44 4z m-579 -139 c18 -4 31 -12 29 -18 -2 -6 -28 -50
-58 -98 -36 -57 -65 -92 -85 -101 -17 -8 -61 -38 -98 -65 -37 -28 -67 -48 -67
-44 0 17 61 111 101 156 24 27 70 68 103 92 33 24 56 44 50 44 -5 0 -18 -6
-29 -14 -11 -7 -42 -18 -70 -24 -27 -6 -71 -18 -97 -26 -58 -17 -61 -10 -10
23 116 77 156 90 231 75z m278 -131 c-10 -22 -13 -24 -15 -9 -2 10 2 22 10 27
19 12 19 12 5 -18z"/>
<path d="M1190 2931 c19 -11 37 -17 39 -15 8 8 -13 21 -44 28 -30 6 -30 6 5
-13z"/>
<path d="M1600 2886 c-92 -32 -136 -56 -295 -161 -77 -51 -169 -109 -205 -129
-36 -20 -61 -36 -56 -36 18 0 142 73 281 165 170 112 187 121 295 156 47 15
76 28 65 28 -11 0 -49 -11 -85 -23z"/>
<path d="M1835 2799 c-27 -11 -39 -17 -25 -14 14 3 40 8 58 12 17 3 32 10 32
14 0 12 -7 11 -65 -12z"/>
<path d="M3218 2762 c7 -49 -66 -115 -158 -143 -17 -5 -19 -8 -7 -8 34 -2 137
59 157 92 20 32 27 87 12 87 -5 0 -7 -13 -4 -28z"/>
<path d="M2974 2730 c-111 -57 -169 -70 -339 -77 -103 -4 -143 -2 -194 11 -83
22 -90 14 -9 -12 122 -39 290 -63 427 -60 l106 2 -90 3 c-111 3 -286 24 -280
33 2 4 51 10 107 13 62 4 125 14 158 26 75 26 207 89 215 101 10 16 -4 10
-101 -40z"/>
<path d="M3325 2717 c53 -122 58 -262 12 -353 -30 -59 -131 -157 -241 -232
-85 -59 -114 -67 -69 -19 56 60 140 172 172 228 38 68 72 195 70 263 -1 31 -4
39 -6 21 -30 -229 -83 -334 -266 -522 -44 -46 -77 -83 -73 -83 4 0 20 7 36 15
17 9 30 13 30 10 0 -3 9 2 19 12 29 27 121 76 121 65 0 -6 -9 -54 -20 -107
-11 -54 -18 -100 -15 -103 3 -3 5 -3 5 0 0 3 9 51 21 107 11 57 18 105 16 108
-3 2 30 36 74 74 136 120 168 179 169 304 0 44 -5 98 -11 120 -16 61 -50 145
-60 145 -4 0 3 -24 16 -53z"/>
<path d="M2180 2609 c-152 -83 -331 -221 -408 -315 -75 -91 -158 -308 -142
-373 5 -21 8 -19 29 26 13 28 34 63 47 79 l24 29 24 -29 c14 -17 28 -47 31
-68 7 -39 14 -45 31 -28 7 7 10 -8 11 -44 1 -31 12 -79 26 -114 23 -57 23 -60
5 -59 -21 1 -60 75 -79 150 -6 26 -14 46 -16 43 -3 -2 3 -31 12 -63 30 -103
90 -189 167 -239 40 -26 53 -30 43 -14 -9 14 -3 13 46 -10 36 -16 64 -19 149
-18 l105 1 -110 6 c-122 7 -171 25 -233 84 -69 66 -118 204 -99 280 10 40 27
47 55 19 9 -9 25 -16 35 -14 21 4 22 -11 1 -44 -24 -36 -22 -120 4 -171 43
-83 139 -128 225 -104 25 7 58 26 73 42 26 28 54 38 54 21 0 -5 25 -35 56 -68
52 -55 55 -57 42 -24 l-15 35 86 86 c47 47 128 129 179 183 51 54 96 96 99 93
2 -3 -2 -40 -11 -82 -26 -124 -17 -326 15 -346 6 -4 6 -16 -1 -34 -6 -15 -8
-30 -6 -32 7 -8 38 106 33 120 -3 6 -6 2 -6 -10 -1 -12 -6 -25 -12 -29 -18
-11 -6 117 21 214 15 54 27 82 35 79 8 -4 15 26 24 100 6 57 17 116 22 131 7
18 7 24 0 17 -6 -6 -19 -55 -30 -110 -11 -55 -29 -121 -40 -146 -11 -25 -28
-79 -36 -120 -9 -40 -18 -75 -20 -78 -11 -11 -4 174 10 236 14 68 49 175 79
246 9 20 12 37 7 37 -5 0 -21 -32 -35 -72 -25 -67 -38 -83 -198 -250 -94 -98
-173 -176 -175 -174 -10 10 69 126 80 120 9 -5 9 -4 1 5 -9 9 -7 22 7 49 10
20 49 99 85 176 56 118 76 149 136 212 39 41 66 74 60 74 -17 0 -130 -130
-163 -187 -17 -29 -35 -53 -41 -53 -6 0 -53 -44 -105 -97 -78 -79 -98 -95
-112 -86 -25 16 -24 37 2 102 57 142 204 314 340 398 31 20 55 38 53 40 -8 8
-125 -77 -192 -139 -36 -34 -85 -89 -109 -123 -24 -33 -75 -94 -114 -134 -55
-57 -72 -70 -77 -57 -9 23 19 97 60 158 33 51 156 176 241 246 55 45 23 28
-45 -24 -56 -43 -124 -111 -174 -174 -66 -82 -149 -161 -159 -151 -7 7 0 27
22 63 l33 53 -45 -44 -45 -43 -36 28 c-20 16 -36 32 -36 35 0 14 72 123 124
187 49 60 163 164 246 225 24 17 24 17 -8 0 -55 -29 -154 -115 -223 -193 -138
-158 -177 -196 -189 -184 -9 9 -1 20 29 45 23 18 39 34 36 37 -2 3 -20 -9 -40
-27 -42 -36 -55 -38 -80 -11 -10 11 -22 20 -27 20 -4 0 5 -12 21 -27 l30 -28
-64 -69 c-36 -38 -68 -66 -72 -63 -13 14 16 140 46 202 38 78 187 224 309 304
86 57 104 73 50 45 -105 -54 -279 -204 -340 -292 -16 -23 -67 -79 -112 -125
-46 -45 -102 -111 -125 -146 -39 -61 -41 -62 -41 -33 0 39 38 144 75 208 15
27 73 94 129 150 101 100 204 176 346 253 41 22 71 41 65 41 -5 0 -44 -19 -85
-41z m-314 -435 c-14 -41 -31 -124 -28 -136 1 -5 -1 -8 -5 -8 -16 0 -93 35
-93 42 0 9 94 116 118 135 22 18 24 11 8 -33z m217 -11 c-4 -10 -9 -20 -13
-23 -3 -3 -14 -34 -25 -70 -10 -36 -20 -68 -22 -72 -4 -9 -63 11 -63 21 0 12
80 121 89 121 5 0 11 9 14 20 3 11 10 20 16 20 6 0 8 -8 4 -17z m-53 -14 c0
-6 -15 -30 -32 -54 -18 -23 -39 -51 -45 -61 -11 -16 -12 -13 -7 21 8 50 21 75
47 97 22 17 37 15 37 -3z m87 -63 l28 -24 -20 -24 -20 -23 23 19 c31 27 37 15
17 -38 -20 -51 -18 -50 -46 -35 -17 9 -18 13 -7 27 12 16 11 16 -7 1 -22 -18
-45 -15 -45 5 0 25 31 116 40 116 5 0 21 -11 37 -24z m145 -39 c-12 -32 -21
-46 -31 -42 -11 4 -11 3 -1 -9 15 -19 4 -96 -14 -96 -17 0 -56 29 -56 42 0 18
109 163 116 155 2 -1 -5 -24 -14 -50z m-332 8 c0 -16 -6 -25 -15 -25 -18 0
-18 5 -5 31 14 26 20 24 20 -6z m616 -74 c-32 -73 -64 -141 -72 -150 -2 -2
-19 7 -38 19 l-36 21 17 32 c16 33 138 157 154 157 4 0 -7 -35 -25 -79z m-199
4 c-15 -42 -33 -56 -43 -31 -4 10 5 31 22 53 32 42 40 34 21 -22z m-157 39 c0
-12 -42 -75 -47 -71 -7 8 25 77 36 77 6 0 11 -3 11 -6z m-270 -19 c0 -13 -4
-14 -20 -5 -11 6 -20 13 -20 15 0 3 9 5 20 5 11 0 20 -7 20 -15z m75 -17 c25
-11 30 -19 19 -31 -8 -7 -74 24 -74 35 0 11 25 10 55 -4z m58 -44 c-4 -10 -9
-12 -15 -6 -12 12 -1 35 12 27 5 -3 6 -13 3 -21z m212 17 c3 -5 1 -12 -5 -16
-5 -3 -10 1 -10 9 0 18 6 21 15 7z m-161 -17 c17 -7 22 -39 7 -48 -14 -9 -55
29 -47 42 8 13 17 15 40 6z m205 -18 c6 -7 9 -28 6 -47 -3 -25 -3 -28 3 -10 9
30 22 34 45 17 17 -13 17 -15 -4 -50 -24 -40 -38 -46 -46 -16 -3 11 -10 20
-16 20 -6 0 -21 10 -34 21 -22 21 -22 23 -6 50 19 32 35 36 52 15z m-103 -37
c70 -44 94 -69 95 -98 0 -22 1 -23 8 -7 5 12 10 16 14 9 11 -18 -4 -43 -24
-40 -15 3 -89 56 -162 118 -10 8 0 49 12 49 4 0 29 -14 57 -31z m222 -49 c17
-11 32 -22 32 -26 0 -18 -57 -103 -66 -100 -7 3 -10 -3 -7 -14 8 -30 -17 -34
-44 -7 -20 20 -24 31 -19 52 5 20 11 25 24 20 13 -5 14 -4 5 6 -10 10 -8 21 9
51 12 21 24 38 27 38 3 0 21 -9 39 -20z m-493 -197 c26 -24 45 -43 41 -43 -25
0 -99 59 -118 94 -9 17 -8 17 9 5 11 -8 41 -33 68 -56z"/>
<path d="M2983 2603 c9 -2 25 -2 35 0 9 3 1 5 -18 5 -19 0 -27 -2 -17 -5z"/>
<path d="M3847 2448 c4 -7 35 -53 68 -103 149 -220 227 -436 245 -675 11 -146
17 -170 76 -297 24 -53 42 -98 40 -100 -5 -6 -87 49 -136 90 -72 61 -177 188
-189 229 -7 22 -14 38 -17 36 -2 -2 1 -20 7 -39 5 -19 19 -74 29 -124 l20 -90
-6 69 -6 70 76 -81 c73 -77 239 -203 252 -191 3 3 -8 32 -25 65 -16 32 -46 99
-67 148 -32 77 -38 104 -42 190 -6 118 -1 118 72 0 66 -105 109 -201 114 -256
4 -46 22 -70 22 -31 0 11 9 54 20 97 34 132 22 274 -36 440 -13 39 -26 75 -27
80 -8 28 -116 190 -147 220 -45 43 -36 20 15 -38 61 -70 126 -200 164 -326 25
-85 31 -122 31 -199 0 -103 -18 -229 -30 -215 -4 4 -15 31 -24 58 -21 65 -93
191 -144 252 -24 30 -42 63 -46 88 -16 94 -62 227 -113 330 -57 114 -182 315
-196 315 -5 0 -5 -6 0 -12z"/>
<path d="M4525 2380 c27 -27 51 -50 54 -50 3 0 -17 23 -44 50 -27 28 -51 50
-54 50 -3 0 17 -22 44 -50z"/>
<path d="M905 2410 c11 -5 29 -8 40 -8 16 0 15 2 -5 8 -34 11 -60 11 -35 0z"/>
<path d="M4610 2286 c0 -2 8 -10 18 -17 15 -13 16 -12 3 4 -13 16 -21 21 -21
13z"/>
<path d="M4328 2203 c12 -2 32 -2 45 0 12 2 2 4 -23 4 -25 0 -35 -2 -22 -4z"/>
<path d="M4438 2203 c7 -3 16 -2 19 1 4 3 -2 6 -13 5 -11 0 -14 -3 -6 -6z"/>
<path d="M4508 2193 c7 -3 16 -2 19 1 4 3 -2 6 -13 5 -11 0 -14 -3 -6 -6z"/>
<path d="M3610 2183 c0 -3 15 -58 34 -122 48 -164 48 -164 56 -286 l7 -110 1
91 c1 50 -3 117 -9 150 -17 96 -89 320 -89 277z"/>
<path d="M3503 2140 c0 -25 2 -35 4 -22 2 12 2 32 0 45 -2 12 -4 2 -4 -23z"/>
<path d="M4571 2176 c2 -2 15 -9 29 -15 24 -11 24 -11 6 3 -16 13 -49 24 -35
12z"/>
<path d="M3342 2055 c-3 -102 -19 -179 -63 -304 -17 -47 -33 -96 -35 -108 -2
-12 -9 -35 -16 -50 -10 -25 -12 -17 -24 77 -7 58 -17 126 -23 152 -8 33 -8 55
0 75 17 45 27 113 18 119 -5 3 -9 -4 -9 -16 0 -44 -81 -302 -101 -324 -21 -23
-18 6 5 65 15 34 26 67 25 73 0 6 -12 -19 -27 -55 -15 -36 -33 -73 -40 -82 -8
-9 -14 -33 -15 -53 -1 -20 -3 -32 -5 -26 -2 8 -9 8 -22 0 -11 -7 -21 -10 -23
-8 -12 12 23 124 62 202 24 47 41 92 39 99 -2 7 -14 -15 -26 -47 -12 -33 -39
-85 -60 -115 -35 -50 -41 -54 -84 -59 -26 -3 -51 -10 -55 -14 -4 -5 11 -5 35
-1 30 5 42 3 42 -5 0 -26 -196 -220 -223 -220 -4 0 -3 9 3 19 5 11 10 23 10
28 -1 4 -8 -5 -17 -22 -8 -16 -25 -41 -37 -54 l-21 -25 30 18 c92 57 131 91
258 231 l36 40 1 -27 c0 -15 -6 -33 -13 -40 -8 -6 -12 -22 -9 -34 4 -24 -16
-41 -108 -88 -30 -16 -59 -33 -65 -39 -5 -5 0 -4 12 2 32 16 43 14 43 -9 0
-29 23 -70 59 -104 45 -43 123 -48 184 -13 43 25 97 104 97 141 0 19 21 20 80
2 55 -17 56 -36 4 -107 -43 -59 -153 -119 -218 -119 -54 0 -128 37 -200 100
-32 28 -60 50 -64 50 -13 -1 92 -91 136 -117 24 -14 60 -32 80 -39 l37 -13
-30 -2 c-30 -1 -30 -1 -5 -9 46 -15 114 -10 155 10 22 11 32 18 23 15 -28 -7
-22 -1 37 40 30 20 55 41 55 46 0 11 89 83 96 76 3 -3 -2 -32 -11 -64 -12 -44
-34 -82 -86 -147 -38 -49 -88 -121 -111 -160 -88 -152 -103 -170 -164 -203
-72 -38 -183 -67 -377 -99 -107 -17 -166 -32 -215 -55 -147 -68 -163 -64 -302
68 -115 109 -295 308 -363 401 -25 34 -55 86 -66 116 -25 67 -51 191 -52 253
-1 41 -2 43 -8 18 -8 -37 14 -170 41 -250 12 -33 20 -70 20 -82 -1 -14 4 -23
13 -23 9 0 12 -6 9 -15 -5 -11 -2 -13 10 -9 19 7 21 -6 4 -26 -11 -12 -10 -12
5 -1 18 14 23 3 7 -17 -7 -9 -7 -9 2 -2 15 12 28 13 28 1 0 -5 16 -26 35 -47
20 -21 33 -44 31 -51 -3 -7 1 -10 8 -7 7 3 23 -9 35 -25 12 -16 35 -44 51 -61
17 -19 26 -39 23 -49 -3 -11 -2 -12 4 -4 7 10 13 7 27 -8 15 -19 16 -25 3 -62
-7 -23 -16 -42 -19 -42 -8 0 -127 162 -140 191 -6 13 -17 24 -23 24 -7 0 -20
10 -28 23 -8 13 -38 41 -66 62 -30 23 -49 45 -46 52 12 31 15 46 4 26 -14 -28
-21 -28 -41 -5 -15 16 -41 148 -41 202 0 24 0 24 -13 -5 -7 -16 -13 -45 -14
-62 0 -18 -4 -33 -9 -33 -13 0 -20 34 -28 123 l-6 77 -17 -27 c-9 -16 -27 -37
-40 -48 l-23 -20 7 25 c4 14 9 41 12 60 4 33 -9 -5 -32 -90 l-7 -25 23 20 c13
11 34 31 47 45 l22 25 1 -30 c0 -16 3 -39 6 -51 4 -16 -1 -24 -25 -34 -77 -32
-102 -107 -81 -247 7 -46 9 -99 6 -118 l-7 -34 -77 1 c-84 3 -118 -10 -180
-63 -19 -17 -44 -29 -61 -29 -45 0 -267 -39 -376 -67 -252 -63 -528 -199 -662
-326 -55 -51 -37 -52 20 -1 151 137 429 267 704 329 128 29 314 58 321 50 3
-3 -7 -19 -23 -35 -16 -16 -26 -32 -23 -35 3 -3 28 22 57 55 74 84 123 111
206 112 36 0 69 -2 72 -5 3 -4 -22 -36 -55 -73 -33 -36 -79 -101 -103 -143
l-44 -76 1 -135 c1 -151 42 -420 64 -420 4 0 -1 35 -11 78 -16 70 -39 223 -39
261 0 51 94 -180 111 -272 l12 -67 578 0 578 0 12 43 c24 89 29 94 24 22 -3
-54 -2 -66 7 -51 15 27 5 148 -16 177 -29 42 -18 102 30 157 10 12 21 22 25
22 4 0 20 -26 35 -57 20 -39 62 -90 130 -158 55 -55 109 -113 119 -128 10 -15
20 -25 23 -23 9 10 -78 113 -146 173 -64 58 -142 169 -142 203 1 8 32 39 70
68 39 29 77 67 86 84 21 40 14 96 -17 137 -12 17 -20 33 -17 37 4 3 73 19 154
35 202 40 250 71 298 194 13 32 33 51 97 94 44 29 82 52 84 50 2 -2 8 -20 14
-39 10 -35 10 -34 5 10 l-5 45 66 45 c37 24 69 48 72 52 5 10 -252 -157 -280
-180 -60 -52 14 63 140 214 89 108 194 214 212 214 6 0 10 15 10 33 -1 21 -3
25 -6 12 -5 -20 -174 -198 -181 -191 -2 3 8 33 22 67 14 35 24 65 22 67 -2 2
-7 -6 -11 -17 -16 -51 -23 -11 -22 114 1 74 -1 135 -4 135 -3 0 -11 19 -17 43
l-11 42 3 -42 c2 -23 0 -41 -4 -40 -4 1 -8 -2 -8 -8 -1 -5 6 -9 14 -7 11 2 14
-14 14 -84 0 -74 -2 -85 -16 -80 -9 3 -24 6 -35 6 -10 0 -19 7 -19 15 0 8 5
15 11 15 5 0 7 5 4 10 -3 6 -15 10 -27 10 -16 0 -18 -3 -9 -14 16 -19 -2 -30
-35 -22 -29 8 -31 26 -3 33 14 4 17 8 9 13 -9 5 -5 26 14 76 19 53 25 62 25
40 1 -52 13 -19 15 41 1 32 14 99 29 149 24 78 27 104 24 190 l-3 99 -2 -90z
m-154 -371 c5 -54 8 -115 8 -134 -1 -39 0 -38 -98 -25 -50 6 -60 21 -34 48 9
9 11 19 5 28 -12 19 -11 59 1 59 6 0 10 -6 11 -12 0 -10 2 -10 6 0 2 6 21 13
41 13 31 2 32 3 10 6 -32 5 -34 16 -12 69 9 22 21 50 26 64 10 24 10 24 18 4
5 -12 12 -66 18 -120z m-198 -125 c-7 -11 -14 -18 -17 -15 -8 8 5 36 17 36 7
0 7 -6 0 -21z m50 12 c0 -23 -14 -41 -31 -41 -22 0 -23 4 -7 30 13 20 38 27
38 11z m53 -358 c-7 -2 -21 -2 -30 0 -10 3 -4 5 12 5 17 0 24 -2 18 -5z
m-1103 -433 c-6 -12 -9 -24 -7 -27 3 -2 8 5 12 16 8 27 16 26 44 -2 14 -16 19
-31 15 -43 -5 -16 -4 -16 5 -4 10 13 15 11 36 -12 13 -16 27 -28 30 -28 3 0
18 -12 35 -26 l29 -27 -19 -38 c-11 -21 -20 -44 -20 -51 1 -7 10 8 22 35 11
26 27 47 34 47 8 0 14 -4 14 -10 0 -5 7 -7 15 -4 8 4 15 2 15 -3 0 -11 36 -11
46 0 4 4 14 7 23 7 8 0 48 16 89 36 78 38 99 38 65 1 -11 -12 -24 -30 -29 -39
-5 -10 -31 -40 -58 -68 -45 -47 -51 -50 -97 -50 -66 0 -138 20 -144 41 -3 9 1
36 9 60 8 24 13 45 11 47 -2 2 -12 -19 -22 -47 -10 -28 -24 -51 -31 -51 -14 0
-13 8 3 67 3 10 -2 2 -12 -17 -12 -26 -18 -31 -20 -17 -3 9 -10 17 -16 17 -19
0 -39 39 -32 63 5 20 5 21 -6 3 -11 -17 -13 -16 -41 15 -20 24 -28 41 -24 59
7 38 26 83 32 77 3 -3 0 -15 -6 -27z"/>
<path d="M3103 1573 c9 -2 23 -2 30 0 6 3 -1 5 -18 5 -16 0 -22 -2 -12 -5z"/>
<path d="M3158 1563 c7 -3 16 -2 19 1 4 3 -2 6 -13 5 -11 0 -14 -3 -6 -6z"/>
<path d="M2337 575 c-24 -50 -20 -58 4 -12 11 22 19 41 17 43 -3 2 -12 -12
-21 -31z"/>
<path d="M2236 565 c-9 -26 -7 -32 5 -12 6 10 9 21 6 23 -2 3 -7 -2 -11 -11z"/>
<path d="M2266 565 c-9 -26 -7 -32 5 -12 6 10 9 21 6 23 -2 3 -7 -2 -11 -11z"/>
<path d="M2196 555 c-9 -26 -7 -32 5 -12 6 10 9 21 6 23 -2 3 -7 -2 -11 -11z"/>
<path d="M2296 545 c-3 -9 -6 -22 -5 -28 0 -7 5 -1 10 12 5 13 8 26 5 28 -2 2
-6 -3 -10 -12z"/>
<path d="M4365 2080 c33 -33 62 -60 64 -60 3 0 -21 27 -54 60 -33 33 -62 60
-64 60 -3 0 21 -27 54 -60z"/>
<path d="M1529 2046 c-63 -50 -122 -108 -149 -145 -41 -56 -46 -60 -51 -39 -5
18 -7 15 -10 -17 -3 -27 -8 -39 -17 -37 -18 3 -5 -40 14 -51 8 -4 23 -25 34
-45 10 -20 19 -32 20 -26 0 6 -11 28 -25 48 -14 20 -25 42 -25 48 0 42 165
238 188 224 6 -3 13 2 17 13 3 11 30 38 60 60 48 37 63 51 52 51 -2 0 -50 -38
-108 -84z"/>
<path d="M4660 2127 c0 -3 12 -12 26 -22 15 -9 23 -12 20 -6 -7 11 -46 35 -46
28z"/>
<path d="M4737 2087 c-3 -8 3 -23 14 -33 22 -20 24 -10 5 25 -10 18 -14 20
-19 8z"/>
<path d="M3165 2033 c-4 -32 -16 -89 -27 -126 -11 -38 -18 -71 -15 -73 2 -2
14 29 26 70 22 75 39 186 28 186 -3 0 -9 -26 -12 -57z"/>
<path d="M3514 1930 c0 -91 2 -128 3 -82 2 45 2 119 0 165 -1 45 -3 8 -3 -83z"/>
<path d="M3721 2067 c-1 -4 6 -23 13 -42 40 -95 57 -186 65 -357 l9 -173 -3
180 c-4 190 -14 247 -60 348 -13 29 -24 48 -24 44z"/>
<path d="M1547 1976 c-22 -35 -25 -48 -18 -67 5 -13 10 -17 10 -9 1 8 12 39
26 68 29 63 20 68 -18 8z"/>
<path d="M1497 1983 c-13 -23 -47 -144 -52 -188 l-7 -50 21 33 c12 18 21 38
21 45 0 15 20 37 33 37 5 0 8 -30 7 -67 -3 -84 -2 -93 8 -93 4 0 7 21 6 48 -1
26 -3 66 -3 89 -1 35 -4 41 -17 36 -14 -5 -15 -3 -4 16 6 13 9 25 6 29 -4 3
-14 -13 -23 -36 -9 -23 -20 -42 -25 -42 -10 0 -6 18 23 94 10 28 17 52 15 54
-2 2 -6 0 -9 -5z"/>
<path d="M4480 1986 c0 -3 9 -10 20 -16 11 -6 20 -8 20 -6 0 3 -9 10 -20 16
-11 6 -20 8 -20 6z"/>
<path d="M4583 1926 c18 -14 17 -15 -10 -19 -16 -2 -4 -5 26 -6 61 -1 62 1 6
23 -31 12 -36 13 -22 2z"/>
<path d="M4518 1913 c7 -3 16 -2 19 1 4 3 -2 6 -13 5 -11 0 -14 -3 -6 -6z"/>
<path d="M2802 1820 c0 -19 2 -27 5 -17 2 9 2 25 0 35 -3 9 -5 1 -5 -18z"/>
<path d="M1593 1760 c0 -36 2 -50 4 -32 2 17 2 47 0 65 -2 17 -4 3 -4 -33z"/>
<path d="M1088 1793 c7 -3 16 -2 19 1 4 3 -2 6 -13 5 -11 0 -14 -3 -6 -6z"/>
<path d="M1129 1781 c7 -5 9 -11 5 -13 -17 -10 -140 -47 -169 -51 -16 -3 27
-4 96 -3 l126 1 -44 -54 c-40 -49 -83 -120 -83 -136 0 -4 14 8 32 25 17 18 49
44 70 57 21 14 38 28 38 30 0 5 -13 -3 -68 -40 -40 -27 -43 -27 -32 -7 7 12
37 49 67 82 30 33 53 62 50 64 -2 3 -16 0 -31 -6 -15 -5 -51 -10 -79 -9 l-52
1 54 24 c42 19 51 28 40 35 -7 5 -18 9 -24 9 -5 0 -4 -4 4 -9z"/>
<path d="M2792 1755 c0 -16 2 -22 5 -12 2 9 2 23 0 30 -3 6 -5 -1 -5 -18z"/>
<path d="M1390 1755 c0 -5 5 -17 10 -25 5 -8 10 -10 10 -5 0 6 -5 17 -10 25
-5 8 -10 11 -10 5z"/>
<path d="M1780 1754 c0 -6 7 -19 16 -30 14 -18 14 -18 3 6 -14 31 -19 36 -19
24z"/>
<path d="M3495 1708 c-5 -36 -50 -177 -79 -253 -6 -16 -6 -17 3 -5 6 8 24 49
40 90 15 41 32 84 36 95 9 22 18 115 11 115 -2 0 -7 -19 -11 -42z"/>
<path d="M2776 1679 c-4 -23 -5 -44 -2 -46 2 -2 7 14 11 37 4 23 5 43 2 46 -2
3 -7 -14 -11 -37z"/>
<path d="M1370 1661 c0 -45 96 -153 170 -191 32 -16 21 -6 -67 64 -58 45 -74
64 -83 96 -10 37 -20 53 -20 31z"/>
<path d="M1603 1610 c0 -36 2 -50 4 -32 2 17 2 47 0 65 -2 17 -4 3 -4 -33z"/>
<path d="M1230 1650 c0 -5 5 -10 10 -10 6 0 10 5 10 10 0 6 -4 10 -10 10 -5 0
-10 -4 -10 -10z"/>
<path d="M3408 1653 c6 -2 18 -2 25 0 6 3 1 5 -13 5 -14 0 -19 -2 -12 -5z"/>
<path d="M1470 1646 c0 -2 7 -7 16 -10 8 -3 12 -2 9 4 -6 10 -25 14 -25 6z"/>
<path d="M3516 1615 c4 -16 10 -46 14 -65 l8 -35 0 35 c1 19 -5 49 -14 65
l-14 30 6 -30z"/>
<path d="M3692 1615 c0 -16 2 -22 5 -12 2 9 2 23 0 30 -3 6 -5 -1 -5 -18z"/>
<path d="M1217 1593 c-9 -21 -30 -63 -48 -93 -18 -30 -25 -49 -17 -42 19 16
93 160 86 167 -3 3 -13 -11 -21 -32z"/>
<path d="M3283 1585 c0 -22 2 -30 4 -17 2 12 2 30 0 40 -3 9 -5 -1 -4 -23z"/>
<path d="M3670 1523 c-11 -52 -106 -253 -131 -278 -6 -6 -8 17 -5 65 l5 75
-10 -70 c-7 -46 -18 -79 -32 -95 -12 -14 -15 -19 -7 -12 25 22 31 13 15 -25
-14 -37 -14 -37 3 -14 9 13 49 83 88 157 39 74 73 132 76 129 3 -3 8 23 11 57
3 35 4 64 3 65 -2 2 -9 -23 -16 -54z"/>
<path d="M2163 1533 c26 -2 68 -2 95 0 26 2 4 3 -48 3 -52 0 -74 -1 -47 -3z"/>
<path d="M1350 1489 c-43 -28 -49 -40 -9 -19 24 13 24 6 -1 -35 -11 -18 -27
-52 -35 -76 l-16 -44 69 68 c37 37 71 64 75 61 4 -4 7 1 7 11 0 20 -3 18 -87
-59 -18 -17 -33 -26 -33 -21 0 13 50 97 73 123 28 30 11 27 -43 -9z"/>
<path d="M3791 1464 c0 -11 3 -14 6 -6 3 7 2 16 -1 19 -3 4 -6 -2 -5 -13z"/>
<path d="M3843 1360 c1 -94 1 -94 6 -25 l6 70 32 -49 c38 -58 82 -185 84 -241
2 -60 28 117 27 185 -1 61 -4 49 -14 -55 -7 -76 -7 -76 -44 27 -12 32 -36 79
-54 105 -18 27 -35 55 -39 63 -3 8 -5 -28 -4 -80z"/>
<path d="M1115 1414 l-17 -27 38 8 c22 4 46 11 54 16 15 10 2 8 -51 -7 -18 -5
-19 -4 -10 15 16 30 7 26 -14 -5z"/>
<path d="M3680 1400 c0 -17 -9 -49 -21 -71 -11 -23 -18 -43 -16 -45 2 -3 10 9
17 26 7 16 16 27 21 24 5 -3 9 18 9 45 0 28 -2 51 -5 51 -3 0 -5 -14 -5 -30z"/>
<path d="M3776 1404 c-4 -14 -5 -28 -3 -31 3 -2 8 8 11 23 4 14 5 28 3 31 -3
2 -8 -8 -11 -23z"/>
<path d="M3746 1313 c-9 -26 -23 -59 -31 -73 -14 -24 -14 -24 -16 25 -2 43 -3
39 -9 -25 -3 -41 -5 -76 -4 -78 0 -1 18 31 39 72 21 42 42 73 47 70 7 -5 1 44
-7 54 -2 2 -10 -18 -19 -45z"/>
<path d="M2780 1315 c13 -13 27 -22 32 -19 5 4 21 -5 36 -17 l27 -24 -20 23
c-11 13 -37 32 -59 43 l-39 19 23 -25z"/>
<path d="M3781 1274 c0 -11 3 -14 6 -6 3 7 2 16 -1 19 -3 4 -6 -2 -5 -13z"/>
<path d="M3826 1218 c-5 -32 -9 -39 -16 -28 -7 10 -10 -2 -10 -40 0 -30 -3
-66 -5 -80 -4 -20 -2 -19 10 7 15 33 40 171 32 179 -2 3 -7 -15 -11 -38z"/>
<path d="M2594 1225 c-3 -14 -4 -39 -1 -55 5 -24 1 -33 -21 -49 -35 -25 -23
-37 16 -17 39 20 47 33 32 51 -7 8 -12 33 -12 55 1 46 -5 52 -14 15z"/>
<path d="M3792 1230 c0 -14 2 -19 5 -12 2 6 2 18 0 25 -3 6 -5 1 -5 -13z"/>
<path d="M3622 1220 c0 -14 2 -19 5 -12 2 6 2 18 0 25 -3 6 -5 1 -5 -13z"/>
<path d="M3605 1135 c-7 -51 -1 -146 11 -187 10 -33 -18 -18 -75 40 -31 32
-68 82 -83 112 -16 30 -28 48 -28 40 0 -8 -3 -26 -5 -40 -4 -20 -4 -21 3 -5 8
17 13 13 44 -35 33 -52 140 -160 158 -160 5 0 3 17 -3 38 -6 20 -11 85 -11
145 1 59 -1 107 -2 107 -1 0 -6 -25 -9 -55z"/>
<path d="M3340 1145 c-14 -8 -20 -14 -14 -15 5 0 19 7 30 15 24 18 16 19 -16
0z"/>
<path d="M3229 1083 c-13 -16 -12 -17 4 -4 16 13 21 21 13 21 -2 0 -10 -8 -17
-17z"/>
<path d="M3402 1033 c-15 -48 -8 -55 8 -8 7 20 10 38 8 41 -3 2 -10 -13 -16
-33z"/>
<path d="M3781 1024 c0 -11 3 -14 6 -6 3 7 2 16 -1 19 -3 4 -6 -2 -5 -13z"/>
<path d="M1776 977 c3 -10 9 -15 12 -12 3 3 0 11 -7 18 -10 9 -11 8 -5 -6z"/>
<path d="M3343 915 l-1 -80 24 64 c14 36 22 69 20 75 -3 7 -5 7 -5 -1 -1 -6
-6 -24 -13 -40 l-12 -28 -6 45 c-6 37 -7 31 -7 -35z"/>
<path d="M1946 805 c-9 -26 -7 -32 5 -12 6 10 9 21 6 23 -2 3 -7 -2 -11 -11z"/>
</g>
</svg>
